<?xml version="1.0" standalone="yes"?>
<svg xmlns="http://www.w3.org/2000/svg" width="400" height="400">
<path style="fill:#222424; stroke:none;" d="M0 0L0 400L400 400L400 0L0 0z"/>
<path style="fill:#1866cb; stroke:none;" d="M191 73L191 74L197 74L191 73z"/>
<path style="fill:#3592b5; stroke:none;" d="M180 75L180 76C201.093 75.5646 220.565 73.5387 241 81C237.805 76.7842 229.985 76.3251 225 75.4244C209.841 72.6854 195.21 73.0778 180 75z"/>
<path style="fill:#1866cb; stroke:none;" d="M209 73L209 74L212 74L209 73M181 74L181 75L184 75L181 74z"/>
<path style="fill:#21c1f7; stroke:none;" d="M110 115C116.671 115 137.123 118.35 139 110L142 110L141 108C146.66 108.052 150.975 104.285 156 102.039C165.145 97.9508 174.964 94.0188 185 92.936C211.111 90.1187 239.642 93.0804 261.576 109.093C273.322 117.669 282.134 132.826 294 140L306.417 170L310.996 198L310.471 218L320 235L324 234C323.9 224.774 327.552 215.328 327.961 206C329.124 179.439 321.658 150.146 305.614 128.83C300.507 122.045 295.397 112.032 287 109L288 107C272.906 97.6775 260.006 86.99 242.92 80.9012C200.741 65.8708 137.256 76.3333 110 115z"/>
<path style="fill:#1866cb; stroke:none;" d="M219 74L219 75L223 75L219 74M176 75L176 76L180 76L176 75M225.667 75.3333L226.333 75.6667L225.667 75.3333M172.667 76.3333L173.333 76.6667L172.667 76.3333z"/>
<path style="fill:#3592b5; stroke:none;" d="M170 77L170 78L179 77L170 77z"/>
<path style="fill:#1866cb; stroke:none;" d="M230.667 76.3333L231.333 76.6667L230.667 76.3333M168.667 77.3333L169.333 77.6667L168.667 77.3333M234.667 77.3333L235.333 77.6667L234.667 77.3333M165.667 78.3333L166.333 78.6667L165.667 78.3333z"/>
<path style="fill:#3592b5; stroke:none;" d="M167.667 78.3333L168.333 78.6667L167.667 78.3333z"/>
<path style="fill:#1866cb; stroke:none;" d="M238.667 78.3333L239.333 78.6667L238.667 78.3333M162 79L163 80L162 79z"/>
<path style="fill:#3592b5; stroke:none;" d="M163 79L163 80L167 80L163 79z"/>
<path style="fill:#1866cb; stroke:none;" d="M241 79L242 80L241 79M159 80L160 81L159 80z"/>
<path style="fill:#3592b5; stroke:none;" d="M158 81L158 82L163 81L158 81M242.667 80.3333L243.333 80.6667L242.667 80.3333z"/>
<path style="fill:#1866cb; stroke:none;" d="M244 80L245 81L244 80M156.667 81.3333L157.333 81.6667L156.667 81.3333z"/>
<path style="fill:#3592b5; stroke:none;" d="M245 81L263 90.4892L288 107L288 106C274.037 96.7654 261.584 85.5358 245 81z"/>
<path style="fill:#1866cb; stroke:none;" d="M247 81L248 82L247 81M154 82L155 83L154 82z"/>
<path style="fill:#3592b5; stroke:none;" d="M150 84L150 85L157 83L150 84z"/>
<path style="fill:#1866cb; stroke:none;" d="M249.667 82.3333L250.333 82.6667L249.667 82.3333M151 83L152 84L151 83M252 83L253 84L252 83M149 84L150 85L149 84M254 84L255 85L254 84M147 85L148 86L147 85z"/>
<path style="fill:#3592b5; stroke:none;" d="M148 85L149 86L148 85z"/>
<path style="fill:#1866cb; stroke:none;" d="M256 85L257 86L256 85M145 86L146 87L145 86z"/>
<path style="fill:#3592b5; stroke:none;" d="M108 116L135 115.437L161 101L161 100L141 108L139 110C139 117.902 115.485 115 110 115C121.314 103.694 133.583 94.0414 148 87C143.734 86.2902 139.552 89.6353 136 91.8109C125.603 98.1801 115.083 105.944 108 116z"/>
<path style="fill:#1866cb; stroke:none;" d="M258 86L259 87L258 86M143 87L144 88L143 87M260 87L261 88L260 87M141 88L142 89L141 88M262 88L263 89L262 88M139 89L140 90L139 89M264 89L265 90L264 89M138 90L139 91L138 90M266 90L267 91L266 90M136 91L137 92L136 91z"/>
<path style="fill:#3592b5; stroke:none;" d="M208 91L222 94L222 93L208 91z"/>
<path style="fill:#1866cb; stroke:none;" d="M267 91L268 92L267 91M134 92L135 93L134 92z"/>
<path style="fill:#3592b5; stroke:none;" d="M170 96L170 97L187 93L170 96M190 92L190 93L197 93L190 92z"/>
<path style="fill:#1866cb; stroke:none;" d="M197 92L197 93L208 93L197 92M269 92L270 93L269 92M133 93L134 94L133 93M186 93L186 94L191 94L186 93M214 93L214 94L218 94L214 93z"/>
<path style="fill:#3592b5; stroke:none;" d="M224 93L231 96L231 95L224 93z"/>
<path style="fill:#1866cb; stroke:none;" d="M270 93L271 94L270 93M131 94L132 95L131 94M181.667 94.3333L182.333 94.6667L181.667 94.3333M221 94L221 95L224 95L221 94z"/>
<path style="fill:#3592b5; stroke:none;" d="M267.667 94.3333L268.333 94.6667L267.667 94.3333z"/>
<path style="fill:#1866cb; stroke:none;" d="M272 94L273 95L272 94M130 95L131 96L130 95M176.667 95.3333L177.333 95.6667L176.667 95.3333M226.667 95.3333L227.333 95.6667L226.667 95.3333M273 95L274 96L273 95M128 96L129 97L128 96M172.667 96.3333L173.333 96.6667L172.667 96.3333M230.667 96.3333L231.333 96.6667L230.667 96.3333z"/>
<path style="fill:#3592b5; stroke:none;" d="M232 96L232 97L245 101L232 96z"/>
<path style="fill:#1866cb; stroke:none;" d="M275 96L276 97L275 96M127 97L128 98L127 97z"/>
<path style="fill:#3592b5; stroke:none;" d="M167.667 97.3333L168.333 97.6667L167.667 97.3333z"/>
<path style="fill:#1866cb; stroke:none;" d="M169.667 97.3333L170.333 97.6667L169.667 97.3333M234 97L235 98L234 97M276 97L277 98L276 97z"/>
<path style="fill:#3592b5; stroke:none;" d="M162 99L162 100L166 99L162 99z"/>
<path style="fill:#1866cb; stroke:none;" d="M166 98L167 99L166 98M237 98L238 99L237 98z"/>
<path style="fill:#3592b5; stroke:none;" d="M274 98L276 100L274 98z"/>
<path style="fill:#1866cb; stroke:none;" d="M278 98L279 99L278 98M124 99L125 100L124 99M164 99L165 100L164 99M240 99L241 100L240 99M279 99L280 100L279 99M123 100L124 101L123 100M161 100L162 101L161 100M242 100L243 101L242 100M280 100L281 101L280 100M122 101L123 102L122 101M159 101L160 102L159 101M244 101L244 102L248 103L248 102L244 101z"/>
<path style="fill:#3592b5; stroke:none;" d="M246 101L247 102L246 101z"/>
<path style="fill:#1866cb; stroke:none;" d="M281 101L282 102L281 101M157 102L158 103L157 102z"/>
<path style="fill:#3592b5; stroke:none;" d="M248 102L249 103L248 102z"/>
<path style="fill:#1866cb; stroke:none;" d="M283 102L284 103L283 102M155 103L156 104L155 103M249 103L250 104L249 103z"/>
<path style="fill:#3592b5; stroke:none;" d="M250 103L250 104L255 106L255 105L250 103z"/>
<path style="fill:#1866cb; stroke:none;" d="M284 103L285 104L284 103M118 104L119 105L118 104M152.667 104.333L153.333 104.667L152.667 104.333M251 104L252 105L251 104M285 104L286 105L285 104M117 105L118 106L117 105M151 105L152 106L151 105M253 105L254 106L253 105M286 105L287 106L286 105M116 106L117 107L116 106M149 106L150 107L149 106M254 106L254 107L257 108L254 106z"/>
<path style="fill:#3592b5; stroke:none;" d="M256 106L256 107L271 117L256 106z"/>
<path style="fill:#1866cb; stroke:none;" d="M115 107L116 108L115 107M147 107L148 108L147 107M288 107L289 108L288 107M114 108L115 109L114 108M146 108L147 109L146 108M258 108L259 109L258 108z"/>
<path style="fill:#3592b5; stroke:none;" d="M287 108L287 109L292 113L293 113L287 108z"/>
<path style="fill:#1866cb; stroke:none;" d="M113 109L114 110L113 109M144 109L145 110L144 109M291 109L292 110L291 109M112 110L113 111L112 110z"/>
<path style="fill:#3592b5; stroke:none;" d="M115 110L116 111L115 110z"/>
<path style="fill:#1866cb; stroke:none;" d="M143 110L144 111L143 110M261 110L262 111L261 110M111 111L112 112L111 111M141 111L142 112L141 111M262 111L263 112L262 111M110 112L111 113L110 112M140 112L141 113L140 112M264 112L265 113L264 112M293 112L294 113L293 112M109 113L110 114L109 113M138 113L139 114L138 113M265 113L266 114L265 113z"/>
<path style="fill:#3592b5; stroke:none;" d="M294 113L294 115L296 115L294 113z"/>
<path style="fill:#1866cb; stroke:none;" d="M108 114L109 115L108 114M137 114L138 115L137 114M267 114L268 115L267 114M107 115L108 116L107 115M268 115L269 116L268 115z"/>
<path style="fill:#3592b5; stroke:none;" d="M296 115C297.473 120.414 303.185 128.141 308 131L296 115z"/>
<path style="fill:#1866cb; stroke:none;" d="M269 116L270 117L269 116M297 116L298 117L297 116z"/>
<path style="fill:#3592b5; stroke:none;" d="M271 117L271 118L294 141L294 140L271 117z"/>
<path style="fill:#1866cb; stroke:none;" d="M298 117L299 118L298 117M272 118L273 119L272 118M299 118L300 119L299 118M273 119L274 120L273 119M274 120L275 121L274 120M275 121L276 122L275 121M301 121L302 122L301 121M276 122L277 123L276 122M302 122L303 123L302 122M277 123L278 124L277 123M303 123L304 124L303 123M278 124L279 125L278 124z"/>
<path style="fill:#7d3ae8; stroke:none;" d="M73 125C78.3517 137.854 87.3337 151.026 101 156.035C111.947 160.047 126.517 158 138 158C163.109 158 188.175 156.778 213 161.46C227.972 164.283 241.04 170.149 254 178.054C260.134 181.795 265.274 187.399 272 190C268.794 182.797 262.967 176.459 258.435 170.004C216.235 109.892 137.277 125 73 125z"/>
<path style="fill:#1866cb; stroke:none;" d="M279 125L280 126L279 125M304 125L305 126L304 125M280 126L281 127L280 126M305 126L306 127L305 126M281 127L282 128L281 127M306 127L307 128L306 127M282 128L283 129L282 128M283 129L284 130L283 129M307 129L308 130L307 129M284 130L285 131L284 130M308 130L310 133L308 130M285 132L286 133L285 132z"/>
<path style="fill:#3592b5; stroke:none;" d="M308 132L309 133L308 132z"/>
<path style="fill:#1866cb; stroke:none;" d="M286 133L287 134L286 133z"/>
<path style="fill:#3592b5; stroke:none;" d="M309 133L310 134L309 133z"/>
<path style="fill:#1866cb; stroke:none;" d="M287 134L288 135L287 134z"/>
<path style="fill:#3592b5; stroke:none;" d="M310 134L311 135L310 134z"/>
<path style="fill:#1866cb; stroke:none;" d="M311 135L312 136L311 135z"/>
<path style="fill:#3592b5; stroke:none;" d="M310 136L319 154L320 154C318.28 147.982 315.402 139.527 310 136z"/>
<path style="fill:#1866cb; stroke:none;" d="M289 137L290 138L289 137M312 137L313 138L312 137M290 138L291 139L290 138M313 139L314 140L313 139M291 140L292 141L291 140M292 141L293 142L292 141M314 141L315 142L314 141z"/>
<path style="fill:#3592b5; stroke:none;" d="M293 142L294 143L293 142z"/>
<path style="fill:#1866cb; stroke:none;" d="M315 142L316 143L315 142M293 143L294 144L293 143z"/>
<path style="fill:#3592b5; stroke:none;" d="M294 144L304 166L305 166C303.755 158.65 300.564 148.182 294 144z"/>
<path style="fill:#1866cb; stroke:none;" d="M316 144L317 145L316 144M294 145L295 146L294 145M295 146L296 147L295 146M317.333 146.667L317.667 147.333L317.333 146.667M296 148L297 149L296 148M318 149L319 150L318 149M297 150L298 151L297 150M319 151L320 152L319 151M298 152L299 153L298 152M299 154L300 155L299 154M320 154L321 155L320 154z"/>
<path style="fill:#3592b5; stroke:none;" d="M320.333 155.667L320.667 156.333L320.333 155.667z"/>
<path style="fill:#1866cb; stroke:none;" d="M300 156L301 157L300 156M321.333 156.667L321.667 157.333L321.333 156.667M100 158L100 159L108 158L100 158M109 157L109 158L113 158L109 157M159 157L160 158L159 157M161 157L161 158L164 158L161 157M54 158L54 159L94 159C83.488 154.589 65.4341 158 54 158z"/>
<path style="fill:#3592b5; stroke:none;" d="M94.6667 158.333L95.3333 158.667L94.6667 158.333z"/>
<path style="fill:#1866cb; stroke:none;" d="M96.6667 158.333L97.3333 158.667L96.6667 158.333z"/>
<path style="fill:#3592b5; stroke:none;" d="M98 158C101.304 161.781 110.26 160 115 160L163 160C206.878 160 254.229 167.695 282 206L270 201L270 202L286 210C281.491 196.71 265.312 185.978 254 178.692C218.066 155.547 173.031 158 132 158C120.981 158 108.849 159.548 98 158z"/>
<path style="fill:#1866cb; stroke:none;" d="M168 158L168 159L192 159L168 158z"/>
<path style="fill:#3592b5; stroke:none;" d="M321 158L323 167L324 167L321 158M54 159L57 161L56 164L57 164L58 159L54 159z"/>
<path style="fill:#21c1f7; stroke:none;" d="M57 160L57 165L68 181C86.3936 196.147 116.821 190 140 190C176.244 190 213.25 187.604 249 194.461C260.686 196.702 270.882 202.482 282 206C276.871 195.788 265.497 188.35 256.424 181.87C215.757 152.823 160.262 160 113 160C95.6391 160 73.7846 155.039 57 160z"/>
<path style="fill:#3592b5; stroke:none;" d="M86.6667 159.333L87.3333 159.667L86.6667 159.333M89 159L89 160L93 160L89 159z"/>
<path style="fill:#1866cb; stroke:none;" d="M192 159L192 160L200 160L192 159M301 159L302 160L301 159M322 159L323 160L322 159M201 160L201 161L207 161L201 160z"/>
<path style="fill:#21c1f7; stroke:none;" d="M56.3333 161.667L56.6667 162.333L56.3333 161.667z"/>
<path style="fill:#1866cb; stroke:none;" d="M208 161L208 162L222 164L208 161M302 161L303 162L302 161M55 162L56 163L55 162M323.333 162.667L323.667 163.333L323.333 162.667M56 164L57 165L56 164M222 164L222 165L232 167L222 164M303 164L304 165L303 164z"/>
<path style="fill:#3592b5; stroke:none;" d="M57 165L63 176L64 176L57 165z"/>
<path style="fill:#1866cb; stroke:none;" d="M324 165L324 168L325 168L324 165M57 166L58 167L57 166M304.333 166.667L304.667 167.333L304.333 166.667M232 167L232 168L241 171L241 170L232 167z"/>
<path style="fill:#3592b5; stroke:none;" d="M305 167L306 173L307 173L305 167z"/>
<path style="fill:#1866cb; stroke:none;" d="M58 168L59 169L58 168z"/>
<path style="fill:#3592b5; stroke:none;" d="M324 168L327 191L328 191L324 168z"/>
<path style="fill:#1866cb; stroke:none;" d="M325.333 169.667L325.667 170.333L325.333 169.667M59 170L60 171L59 170M305.333 170.667L305.667 171.333L305.333 170.667M241.667 171.333L242.333 171.667L241.667 171.333M243.667 172.333L244.333 172.667L243.667 172.333M61 173L62 174L61 173M245.667 173.333L246.333 173.667L245.667 173.333M306 173L306 176L307 176L306 173M62 174L63 175L62 174M247 174L250 176L247 174M326.333 174.667L326.667 175.333L326.333 174.667z"/>
<path style="fill:#3592b5; stroke:none;" d="M307.333 175.667L307.667 176.333L307.333 175.667M64 176C73.4054 194.13 89.5841 191 107 191L218 191L218 190L128 190C113.838 190 93.4305 193.755 80 189.231C75.2243 187.623 72.2712 183.402 68 181L64 176z"/>
<path style="fill:#1866cb; stroke:none;" d="M250.667 176.333L251.333 176.667L250.667 176.333M64 177L65 178L64 177M252 177L253 178L252 177M307.333 177.667L307.667 178.333L307.333 177.667M253 178L253 179L258 181L253 178z"/>
<path style="fill:#3592b5; stroke:none;" d="M308 179L309 190L310 190L308 179z"/>
<path style="fill:#1866cb; stroke:none;" d="M327 179L327 182L328 182L327 179M66 180L67 181L66 180z"/>
<path style="fill:#3592b5; stroke:none;" d="M69 180L70 181L69 180z"/>
<path style="fill:#1866cb; stroke:none;" d="M67 181L68 182L67 181M258 181L261 183L258 181M68 182L69 183L68 182M69 183L70 184L69 183M261 183L262 184L261 183M308 183L308 186L309 186L308 183M70 184L71 185L70 184z"/>
<path style="fill:#3592b5; stroke:none;" d="M73 184L74 185L73 184z"/>
<path style="fill:#1866cb; stroke:none;" d="M262 184L265 186L262 184M71 185L72 186L71 185M72 186L73 187L72 186M265 186L266 187L265 186M328 186L328 192L329 192L328 186M73 187L74 188L73 187M266 187L267 188L266 187M74 188L75 189L74 188M267 188L273 193L267 188M75 189L76 190L75 189M76 190L77 191L76 190M309 190L309 210L310 210L309 190M78 191L78 192L92 202L92 203L187 203C213.878 203 241.766 202.638 267 213.427C287.85 222.343 299.669 237.746 317 251L287 208L285 210C271.573 196.43 244.97 193.758 227 191.834C178.334 186.624 126.974 191 78 191z"/>
<path style="fill:#3592b5; stroke:none;" d="M224 191L224 192L230 192L224 191M310 191L310 210L311 210L310 191M233 192L233 193L238 193L233 192M328 192L328 208L329 208L328 192M241.667 193.333L242.333 193.667L241.667 193.333z"/>
<path style="fill:#1866cb; stroke:none;" d="M273 193L274 194L273 193z"/>
<path style="fill:#3592b5; stroke:none;" d="M246 194L246 195L250 195L246 194z"/>
<path style="fill:#1866cb; stroke:none;" d="M274 194L275 195L274 194z"/>
<path style="fill:#3592b5; stroke:none;" d="M250 195L250 196L254 196L250 195z"/>
<path style="fill:#1866cb; stroke:none;" d="M275 195L276 196L275 195z"/>
<path style="fill:#3592b5; stroke:none;" d="M255.667 196.333L256.333 196.667L255.667 196.333z"/>
<path style="fill:#1866cb; stroke:none;" d="M276 196L277 197L276 196z"/>
<path style="fill:#3592b5; stroke:none;" d="M258 197L258 198L261 198L258 197z"/>
<path style="fill:#1866cb; stroke:none;" d="M277 197L278 198L277 197z"/>
<path style="fill:#3592b5; stroke:none;" d="M261 198L261 199L264 199L261 198z"/>
<path style="fill:#1866cb; stroke:none;" d="M278 198L279 199L278 198z"/>
<path style="fill:#3592b5; stroke:none;" d="M264.667 199.333L265.333 199.667L264.667 199.333M272 199L273 200L272 199M267.667 200.333L268.333 200.667L267.667 200.333z"/>
<path style="fill:#1866cb; stroke:none;" d="M280 201L281 202L280 201M50 202L50 203L56 203L50 202M57 202L57 203L61 203L57 202M85.6667 202.333L86.3333 202.667L85.6667 202.333M88.6667 202.333L89.3333 202.667L88.6667 202.333M281 202L282 203L281 202z"/>
<path style="fill:#3592b5; stroke:none;" d="M48.3333 203.667L48.6667 204.333L48.3333 203.667z"/>
<path style="fill:#21c1f7; stroke:none;" d="M49 203C53.3171 227.219 81.4381 246.01 104 250.551C156.309 261.079 211.667 245.332 264 256.662C279.758 260.074 294.969 265.401 309 273.427C322.038 280.886 334.21 291.058 348 297C331.94 263.201 301.019 227.173 266 213.014C237.586 201.526 206.003 203 176 203L49 203z"/>
<path style="fill:#3592b5; stroke:none;" d="M218 203L218 204L221 204L218 203z"/>
<path style="fill:#1866cb; stroke:none;" d="M282 203L283 204L282 203z"/>
<path style="fill:#3592b5; stroke:none;" d="M229 204L229 205L232 205L229 204z"/>
<path style="fill:#1866cb; stroke:none;" d="M48 205L49 206L48 205z"/>
<path style="fill:#3592b5; stroke:none;" d="M236.667 205.333L237.333 205.667L236.667 205.333M49 206L50 207L49 206M242.667 206.333L243.333 206.667L242.667 206.333z"/>
<path style="fill:#1866cb; stroke:none;" d="M49 207L50 208L49 207z"/>
<path style="fill:#3592b5; stroke:none;" d="M247 207L248 208L247 207z"/>
<path style="fill:#1866cb; stroke:none;" d="M285 207L286 208L285 207z"/>
<path style="fill:#3592b5; stroke:none;" d="M50 208L51 209L50 208M251.667 208.333L252.333 208.667L251.667 208.333z"/>
<path style="fill:#1866cb; stroke:none;" d="M328 208L328 214L329 214L328 208M50 209L51 210L50 209z"/>
<path style="fill:#3592b5; stroke:none;" d="M255 209L256 210L255 209M51 210L52 211L51 210M258.667 210.333L259.333 210.667L258.667 210.333M309 210C308.951 216.584 309.245 220.382 313 226L314 226L309 210M327 210L325 224C328.401 221.074 328.667 213.983 327 210z"/>
<path style="fill:#1866cb; stroke:none;" d="M51 211L52 212L51 211z"/>
<path style="fill:#3592b5; stroke:none;" d="M262 211L263 212L262 211M52 212L53 213L52 212M264 212L265 213L264 212z"/>
<path style="fill:#1866cb; stroke:none;" d="M52 213L53 214L52 213z"/>
<path style="fill:#3592b5; stroke:none;" d="M267 213L268 214L267 213M53 214L54 215L53 214M269 214L270 215L269 214z"/>
<path style="fill:#1866cb; stroke:none;" d="M308 214L308 218L309 218L308 214z"/>
<path style="fill:#3592b5; stroke:none;" d="M271 215L272 216L271 215z"/>
<path style="fill:#1866cb; stroke:none;" d="M54 216L56 219L54 216z"/>
<path style="fill:#3592b5; stroke:none;" d="M55 217L56 218L55 217M275 217L276 218L275 217M277 218L278 219L277 218z"/>
<path style="fill:#1866cb; stroke:none;" d="M327 218L327 221L328 221L327 218z"/>
<path style="fill:#3592b5; stroke:none;" d="M56 219L57 220L56 219M279 219L280 220L279 219z"/>
<path style="fill:#1866cb; stroke:none;" d="M308 219L309 220L308 219z"/>
<path style="fill:#3592b5; stroke:none;" d="M57 220L59 222L57 220M281 220L282 221L281 220z"/>
<path style="fill:#1866cb; stroke:none;" d="M309 220L310 221L309 220M57 221L58 222L57 221z"/>
<path style="fill:#3592b5; stroke:none;" d="M283 221L284 222L283 221z"/>
<path style="fill:#1866cb; stroke:none;" d="M58 222L59 223L58 222z"/>
<path style="fill:#3592b5; stroke:none;" d="M284 222L285 223L284 222M59 223L60 224L59 223M286 223L287 224L286 223z"/>
<path style="fill:#1866cb; stroke:none;" d="M311 223L312 224L311 223z"/>
<path style="fill:#3592b5; stroke:none;" d="M60 224L61 225L60 224M287 224L288 225L287 224z"/>
<path style="fill:#1866cb; stroke:none;" d="M326.333 224.667L326.667 225.333L326.333 224.667z"/>
<path style="fill:#3592b5; stroke:none;" d="M61 225L62 226L61 225M289 225L290 226L289 225z"/>
<path style="fill:#1866cb; stroke:none;" d="M312 225L313 226L312 225z"/>
<path style="fill:#3592b5; stroke:none;" d="M325 225L323 233L325 225z"/>
<path style="fill:#1866cb; stroke:none;" d="M61 226L62 227L61 226z"/>
<path style="fill:#3592b5; stroke:none;" d="M290 226L291 227L290 226z"/>
<path style="fill:#1866cb; stroke:none;" d="M313 226L314 227L313 226M62 227L63 228L62 227z"/>
<path style="fill:#3592b5; stroke:none;" d="M291 227L292 228L291 227z"/>
<path style="fill:#1866cb; stroke:none;" d="M314 227L315 228L314 227M63 228L64 229L63 228z"/>
<path style="fill:#3592b5; stroke:none;" d="M315 228L319 235L320 235L315 228z"/>
<path style="fill:#1866cb; stroke:none;" d="M64 229L65 230L64 229z"/>
<path style="fill:#3592b5; stroke:none;" d="M294 229L295 230L294 229z"/>
<path style="fill:#1866cb; stroke:none;" d="M315 229L316 230L315 229M325.333 229.667L325.667 230.333L325.333 229.667M65 230L67 232L65 230z"/>
<path style="fill:#3592b5; stroke:none;" d="M66 230L67 231L66 230M295 230L296 231L295 230z"/>
<path style="fill:#1866cb; stroke:none;" d="M316 230L317 231L316 230z"/>
<path style="fill:#3592b5; stroke:none;" d="M67 231L68 232L67 231M68 232L69 233L68 232z"/>
<path style="fill:#1866cb; stroke:none;" d="M317 232L318 233L317 232z"/>
<path style="fill:#3592b5; stroke:none;" d="M69 233L70 234L69 233M299 233L300 234L299 233z"/>
<path style="fill:#1866cb; stroke:none;" d="M318 233L319 234L318 233M324.333 233.667L324.667 234.333L324.333 233.667z"/>
<path style="fill:#3592b5; stroke:none;" d="M70 234L71 235L70 234M300 234L301 235L300 234M323 234L320 235L322 239L323 234M71 235L72 236L71 235M301 235L302 236L301 235z"/>
<path style="fill:#1866cb; stroke:none;" d="M72 236L74 238L72 236z"/>
<path style="fill:#3592b5; stroke:none;" d="M73 236L74 237L73 236M302 236L303 237L302 236z"/>
<path style="fill:#1866cb; stroke:none;" d="M320 236L321 237L320 236z"/>
<path style="fill:#3592b5; stroke:none;" d="M74 237L75 238L74 237M303 237L304 238L303 237z"/>
<path style="fill:#1866cb; stroke:none;" d="M323 237L324 238L323 237M75 238L76 239L75 238z"/>
<path style="fill:#3592b5; stroke:none;" d="M304 238L305 239L304 238z"/>
<path style="fill:#1866cb; stroke:none;" d="M76 239L77 240L76 239z"/>
<path style="fill:#3592b5; stroke:none;" d="M77 239L78 240L77 239M305 239L306 240L305 239z"/>
<path style="fill:#1866cb; stroke:none;" d="M322 239L323 240L322 239M78 240L79 241L78 240z"/>
<path style="fill:#3592b5; stroke:none;" d="M79 240L80 241L79 240M306 240L307 241L306 240M80 241L81 242L80 241M307 241L308 242L307 241z"/>
<path style="fill:#1866cb; stroke:none;" d="M81 242L82 243L81 242z"/>
<path style="fill:#3592b5; stroke:none;" d="M82 242L83 243L82 242M308 242L309 243L308 242z"/>
<path style="fill:#1866cb; stroke:none;" d="M83 243L84 244L83 243z"/>
<path style="fill:#3592b5; stroke:none;" d="M84 243L85 244L84 243M309 243L310 244L309 243z"/>
<path style="fill:#1866cb; stroke:none;" d="M85 244L86 245L85 244z"/>
<path style="fill:#3592b5; stroke:none;" d="M86 244L87 245L86 244M310 244L311 245L310 244z"/>
<path style="fill:#1866cb; stroke:none;" d="M87 245L88 246L87 245z"/>
<path style="fill:#3592b5; stroke:none;" d="M88 245L89 246L88 245M311 245L312 246L311 245M90.6667 246.333L91.3333 246.667L90.6667 246.333M312 246L313 247L312 246z"/>
<path style="fill:#1866cb; stroke:none;" d="M92 247L93 248L92 247z"/>
<path style="fill:#3592b5; stroke:none;" d="M93 247L94 248L93 247z"/>
<path style="fill:#1866cb; stroke:none;" d="M95 248L96 249L95 248M98 249L99 250L98 249z"/>
<path style="fill:#3592b5; stroke:none;" d="M99 249L100 250L99 249M314 249L315 250L314 249z"/>
<path style="fill:#1866cb; stroke:none;" d="M101 250L102 251L101 250z"/>
<path style="fill:#3592b5; stroke:none;" d="M102.667 250.333L103.333 250.667L102.667 250.333M315 250L316 251L315 250z"/>
<path style="fill:#1866cb; stroke:none;" d="M106 251L107 252L106 251z"/>
<path style="fill:#3592b5; stroke:none;" d="M107 251L107 252L110 252L107 251M316 251L317 252L316 251z"/>
<path style="fill:#1866cb; stroke:none;" d="M112.667 252.333L113.333 252.667L112.667 252.333z"/>
<path style="fill:#3592b5; stroke:none;" d="M114 252L114 253L119 253L114 252M317 252L318 253L317 252z"/>
<path style="fill:#1866cb; stroke:none;" d="M120 253L120 254L240 254L204 253L120 253z"/>
<path style="fill:#3592b5; stroke:none;" d="M240 253L240 254L245 254L240 253z"/>
<path style="fill:#1866cb; stroke:none;" d="M318 253L320 255L318 253M246 254L246 255L250 255L246 254z"/>
<path style="fill:#3592b5; stroke:none;" d="M250 254L250 255L253 255L250 254M318 254L319 255L318 254z"/>
<path style="fill:#1866cb; stroke:none;" d="M254 255L254 256L257 256L254 255z"/>
<path style="fill:#3592b5; stroke:none;" d="M257 255L258 256L257 255M319 255L320 256L319 255z"/>
<path style="fill:#1866cb; stroke:none;" d="M260.667 256.333L261.333 256.667L260.667 256.333z"/>
<path style="fill:#3592b5; stroke:none;" d="M262.667 256.333L263.333 256.667L262.667 256.333z"/>
<path style="fill:#1866cb; stroke:none;" d="M320 256L321 257L320 256M265.667 257.333L266.333 257.667L265.667 257.333z"/>
<path style="fill:#3592b5; stroke:none;" d="M267 257L268 258L267 257z"/>
<path style="fill:#1866cb; stroke:none;" d="M270 258L271 259L270 258z"/>
<path style="fill:#3592b5; stroke:none;" d="M271 258L272 259L271 258M321 258L322 259L321 258z"/>
<path style="fill:#1866cb; stroke:none;" d="M273 259L274 260L273 259z"/>
<path style="fill:#3592b5; stroke:none;" d="M274.667 259.333L275.333 259.667L274.667 259.333M322 259L323 260L322 259z"/>
<path style="fill:#1866cb; stroke:none;" d="M277 260L278 261L277 260z"/>
<path style="fill:#3592b5; stroke:none;" d="M278.667 260.333L279.333 260.667L278.667 260.333z"/>
<path style="fill:#1866cb; stroke:none;" d="M323 260L324 261L323 260M280 261L281 262L280 261z"/>
<path style="fill:#3592b5; stroke:none;" d="M281.667 261.333L282.333 261.667L281.667 261.333z"/>
<path style="fill:#1866cb; stroke:none;" d="M283 262L284 263L283 262z"/>
<path style="fill:#3592b5; stroke:none;" d="M284.667 262.333L285.333 262.667L284.667 262.333M324 262L325 263L324 262z"/>
<path style="fill:#1866cb; stroke:none;" d="M286 263L287 264L286 263z"/>
<path style="fill:#3592b5; stroke:none;" d="M287 263L288 264L287 263M325 263L326 264L325 263M93 264C103.603 288.569 132.291 311.968 158 319L158 318L127 302L127 299C117.533 296.848 102.365 279.094 100 270L96 267L102 267L93 264z"/>
<path style="fill:#1866cb; stroke:none;" d="M96 264L97 265L96 264M289 264L290 265L289 264z"/>
<path style="fill:#3592b5; stroke:none;" d="M290 264L291 265L290 264z"/>
<path style="fill:#1866cb; stroke:none;" d="M326 264L328 266L326 264M93 265L94 266L93 265M99 265L100 266L99 265M291 265L292 266L291 265z"/>
<path style="fill:#3592b5; stroke:none;" d="M292 265L293 266L292 265M326 265L327 266L326 265z"/>
<path style="fill:#21c1f7; stroke:none;" d="M95 266L96 267L95 266M98 266L99 267L98 266z"/>
<path style="fill:#1866cb; stroke:none;" d="M102.667 266.333L103.333 266.667L102.667 266.333M294 266L295 267L294 266z"/>
<path style="fill:#3592b5; stroke:none;" d="M295 266L296 267L295 266M327 266L328 267L327 266z"/>
<path style="fill:#1866cb; stroke:none;" d="M94 267L95 268L94 267z"/>
<path style="fill:#21c1f7; stroke:none;" d="M96 267L100 270C101.218 278.342 118.019 299.141 127 299L127 302C159.096 319.869 193.454 333.121 231 323.205C247.724 318.789 260.649 309.917 276 303L276 299L278 301C284.696 296.173 292.881 289.84 296 282C291.035 280.939 285.158 276.624 280.015 277.421C275.801 278.075 272.183 283.043 268.997 285.596C261.953 291.242 254.147 295.864 246 299.738C229.997 307.348 211.597 310.117 194 308.91C177.463 307.777 158.967 301.54 145 292.655C135.68 286.726 128.391 276.411 118.826 271.414C112.527 268.123 103 267.478 96 267z"/>
<path style="fill:#3592b5; stroke:none;" d="M103 267L103 268L126 277C120.281 268.91 112.384 267.742 103 267z"/>
<path style="fill:#1866cb; stroke:none;" d="M107.667 267.333L108.333 267.667L107.667 267.333M296 267L297 268L296 267z"/>
<path style="fill:#3592b5; stroke:none;" d="M297 267L298 268L297 267M328 267L329 268L328 267M102 268L103 269L102 268z"/>
<path style="fill:#1866cb; stroke:none;" d="M113.667 268.333L114.333 268.667L113.667 268.333M298 268L299 269L298 268z"/>
<path style="fill:#3592b5; stroke:none;" d="M299 268L300 269L299 268z"/>
<path style="fill:#1866cb; stroke:none;" d="M329 268L330 269L329 268M95 269L96 270L95 269M119 269L120 270L119 269M300 269L301 270L300 269z"/>
<path style="fill:#3592b5; stroke:none;" d="M301 269L302 270L301 269M329 269L330 270L329 269z"/>
<path style="fill:#1866cb; stroke:none;" d="M96 270L97 271L96 270M120 270L121 271L120 270M302 270L303 271L302 270z"/>
<path style="fill:#3592b5; stroke:none;" d="M303 270L304 271L303 270z"/>
<path style="fill:#1866cb; stroke:none;" d="M330 270L331 271L330 270M121 271L122 272L121 271M304 271L305 272L304 271z"/>
<path style="fill:#3592b5; stroke:none;" d="M305 271L306 272L305 271z"/>
<path style="fill:#1866cb; stroke:none;" d="M331 271L332 272L331 271M97 272L98 273L97 272M122 272L123 273L122 272M306 272L307 273L306 272z"/>
<path style="fill:#3592b5; stroke:none;" d="M307 272L308 273L307 272M331 272L332 273L331 272z"/>
<path style="fill:#1866cb; stroke:none;" d="M98 273L99 274L98 273M123 273L124 274L123 273M308 273L309 274L308 273z"/>
<path style="fill:#3592b5; stroke:none;" d="M309 273L310 274L309 273M332 273L333 274L332 273z"/>
<path style="fill:#1866cb; stroke:none;" d="M99 274L100 275L99 274M124 274L125 275L124 274M310 274L311 275L310 274M333 274L334 275L333 274M279 275L280 276L279 275z"/>
<path style="fill:#3592b5; stroke:none;" d="M312 275L313 276L312 275z"/>
<path style="fill:#1866cb; stroke:none;" d="M334 275L335 276L334 275M100 276L101 277L100 276M277 276L269 285L277 276z"/>
<path style="fill:#3592b5; stroke:none;" d="M278 276L278 277L282 277L278 276z"/>
<path style="fill:#1866cb; stroke:none;" d="M282.667 276.333L283.333 276.667L282.667 276.333M313 276L314 277L313 276z"/>
<path style="fill:#3592b5; stroke:none;" d="M314 276L315 277L314 276M334 276L335 277L334 276z"/>
<path style="fill:#1866cb; stroke:none;" d="M101 277L102 278L101 277z"/>
<path style="fill:#3592b5; stroke:none;" d="M126 277L134 284L134 283L126 277z"/>
<path style="fill:#1866cb; stroke:none;" d="M127 277L128 278L127 277z"/>
<path style="fill:#3592b5; stroke:none;" d="M277 277L278 278L277 277M283 277L283 278L296 282L285 296L298 282L283 277z"/>
<path style="fill:#1866cb; stroke:none;" d="M285.667 277.333L286.333 277.667L285.667 277.333M315 277L316 278L315 277M335 277L336 278L335 277M128 278L129 279L128 278z"/>
<path style="fill:#3592b5; stroke:none;" d="M276 278L277 279L276 278z"/>
<path style="fill:#1866cb; stroke:none;" d="M289.667 278.333L290.333 278.667L289.667 278.333z"/>
<path style="fill:#3592b5; stroke:none;" d="M317 278L318 279L317 278z"/>
<path style="fill:#1866cb; stroke:none;" d="M336 278L337 279L336 278z"/>
<path style="fill:#3592b5; stroke:none;" d="M123 279L124 280L123 279z"/>
<path style="fill:#1866cb; stroke:none;" d="M129 279L130 280L129 279z"/>
<path style="fill:#3592b5; stroke:none;" d="M275 279L276 280L275 279z"/>
<path style="fill:#1866cb; stroke:none;" d="M291.667 279.333L292.333 279.667L291.667 279.333M318 279L319 280L318 279z"/>
<path style="fill:#3592b5; stroke:none;" d="M319 279L320 280L319 279M336 279L337 280L336 279z"/>
<path style="fill:#1866cb; stroke:none;" d="M130 280L131 281L130 280z"/>
<path style="fill:#3592b5; stroke:none;" d="M274 280L273 282L275 282L274 280z"/>
<path style="fill:#1866cb; stroke:none;" d="M294 280L295 281L294 280M320 280L322 282L320 280z"/>
<path style="fill:#3592b5; stroke:none;" d="M321 280L322 281L321 280M337 280L338 281L337 280z"/>
<path style="fill:#1866cb; stroke:none;" d="M104 281L105 282L104 281M131 281L132 282L131 281M297 281L298 282L297 281z"/>
<path style="fill:#3592b5; stroke:none;" d="M322 281L323 282L322 281z"/>
<path style="fill:#1866cb; stroke:none;" d="M338 281L339 282L338 281M105 282L106 283L105 282M132 282L133 283L132 282z"/>
<path style="fill:#3592b5; stroke:none;" d="M272 282L273 283L272 282z"/>
<path style="fill:#1866cb; stroke:none;" d="M298 282L299 283L298 282M323 282L324 283L323 282z"/>
<path style="fill:#3592b5; stroke:none;" d="M338 282L339 283L338 282z"/>
<path style="fill:#1866cb; stroke:none;" d="M106 283L107 284L106 283z"/>
<path style="fill:#3592b5; stroke:none;" d="M271 283L272 284L271 283M325 283L326 284L325 283M339 283L340 284L339 283M128 284L129 285L128 284M134 284C137.387 289.835 145.49 294.587 152 296L152 295L134 284M270 284L271 285L270 284z"/>
<path style="fill:#1866cb; stroke:none;" d="M326 284L327 285L326 284z"/>
<path style="fill:#3592b5; stroke:none;" d="M327 284L328 285L327 284z"/>
<path style="fill:#1866cb; stroke:none;" d="M340 284L341 285L340 284M136 285L137 286L136 285M267 285L265 288L267 285z"/>
<path style="fill:#3592b5; stroke:none;" d="M268.667 285.333L269.333 285.667L268.667 285.333z"/>
<path style="fill:#1866cb; stroke:none;" d="M296 285L297 286L296 285z"/>
<path style="fill:#3592b5; stroke:none;" d="M328 285L329 286L328 285M340 285L341 286L340 285z"/>
<path style="fill:#1866cb; stroke:none;" d="M137 286L138 287L137 286z"/>
<path style="fill:#3592b5; stroke:none;" d="M267 286L268 287L267 286z"/>
<path style="fill:#1866cb; stroke:none;" d="M295 286L296 287L295 286M329 286L330 287L329 286z"/>
<path style="fill:#3592b5; stroke:none;" d="M330 286L331 287L330 286M341 286L342 287L341 286z"/>
<path style="fill:#1866cb; stroke:none;" d="M109 287L110 288L109 287M139 287L140 288L139 287z"/>
<path style="fill:#3592b5; stroke:none;" d="M266 287L267 288L266 287z"/>
<path style="fill:#1866cb; stroke:none;" d="M294 287L295 288L294 287z"/>
<path style="fill:#3592b5; stroke:none;" d="M331 287L332 288L331 287z"/>
<path style="fill:#1866cb; stroke:none;" d="M342 287L343 288L342 287M110 288L111 289L110 288M140 288L141 289L140 288M263 288L262 290L263 288z"/>
<path style="fill:#3592b5; stroke:none;" d="M263 290L266 288L263 290z"/>
<path style="fill:#1866cb; stroke:none;" d="M293 288L294 289L293 288M332 288L333 289L332 288z"/>
<path style="fill:#3592b5; stroke:none;" d="M333 288L334 289L333 288M342 288L343 289L342 288z"/>
<path style="fill:#1866cb; stroke:none;" d="M111 289L112 290L111 289M142 289L143 290L142 289M292 289L293 290L292 289M334 289L335 290L334 289z"/>
<path style="fill:#3592b5; stroke:none;" d="M343 289L344 290L343 289z"/>
<path style="fill:#1866cb; stroke:none;" d="M143 290L144 291L143 290M260 290L259 292L260 290z"/>
<path style="fill:#3592b5; stroke:none;" d="M261 290L260 292L262 292L261 290z"/>
<path style="fill:#1866cb; stroke:none;" d="M291 290L292 291L291 290M335 290L336 291L335 290z"/>
<path style="fill:#3592b5; stroke:none;" d="M336 290L337 291L336 290z"/>
<path style="fill:#1866cb; stroke:none;" d="M344 290L345 291L344 290M113 291L114 292L113 291M145 291L146 292L145 291M290 291L291 292L290 291M337 291L338 292L337 291M114 292L115 293L114 292M146 292L147 293L146 292M257 292L258 293L257 292z"/>
<path style="fill:#3592b5; stroke:none;" d="M258.667 292.333L259.333 292.667L258.667 292.333z"/>
<path style="fill:#1866cb; stroke:none;" d="M289 292L290 293L289 292z"/>
<path style="fill:#3592b5; stroke:none;" d="M339 292L340 293L339 292M345 292L346 293L345 292z"/>
<path style="fill:#1866cb; stroke:none;" d="M148 293L149 294L148 293z"/>
<path style="fill:#3592b5; stroke:none;" d="M256.667 293.333L257.333 293.667L256.667 293.333z"/>
<path style="fill:#1866cb; stroke:none;" d="M288 293L289 294L288 293M340 293L341 294L340 293z"/>
<path style="fill:#3592b5; stroke:none;" d="M341 293L342 294L341 293z"/>
<path style="fill:#1866cb; stroke:none;" d="M346 293L347 294L346 293M150 294L151 295L150 294M254 294L255 295L254 294z"/>
<path style="fill:#3592b5; stroke:none;" d="M255 294L256 295L255 294z"/>
<path style="fill:#1866cb; stroke:none;" d="M287 294L288 295L287 294M342 294L343 295L342 294M347 294L348 295L347 294M118 295L119 296L118 295M252 295L253 296L252 295z"/>
<path style="fill:#3592b5; stroke:none;" d="M253.667 295.333L254.333 295.667L253.667 295.333z"/>
<path style="fill:#1866cb; stroke:none;" d="M286 295L287 296L286 295M343 295L344 296L343 295z"/>
<path style="fill:#3592b5; stroke:none;" d="M344 295L345 296L344 295M347 295L348 296L347 295z"/>
<path style="fill:#1866cb; stroke:none;" d="M119 296L120 297L119 296z"/>
<path style="fill:#3592b5; stroke:none;" d="M152 296L152 297L155 298L152 296z"/>
<path style="fill:#1866cb; stroke:none;" d="M154 296L155 297L154 296M250 296L251 297L250 296z"/>
<path style="fill:#3592b5; stroke:none;" d="M251.667 296.333L252.333 296.667L251.667 296.333M284 296L285 297L284 296z"/>
<path style="fill:#1866cb; stroke:none;" d="M345 296L347 298L345 296z"/>
<path style="fill:#3592b5; stroke:none;" d="M346 296L347 297L346 296z"/>
<path style="fill:#1866cb; stroke:none;" d="M348 296L348 299L349 299L350 299L348 296M120 297L121 298L120 297M155.667 297.333L156.333 297.667L155.667 297.333M248 297L249 298L248 297z"/>
<path style="fill:#3592b5; stroke:none;" d="M249.667 297.333L250.333 297.667L249.667 297.333M282 297C279.796 299.03 278.562 300.921 276 299L276 303L272 306L282 297z"/>
<path style="fill:#1866cb; stroke:none;" d="M283 297L284 298L283 297z"/>
<path style="fill:#3592b5; stroke:none;" d="M347.667 297.333L348.333 297.667L347.667 297.333z"/>
<path style="fill:#1866cb; stroke:none;" d="M121 298L122 299L121 298z"/>
<path style="fill:#3592b5; stroke:none;" d="M156 298L156 299L160 300L160 299L156 298z"/>
<path style="fill:#1866cb; stroke:none;" d="M158 298L159 299L158 298M246 298L247 299L246 298z"/>
<path style="fill:#3592b5; stroke:none;" d="M247.667 298.333L248.333 298.667L247.667 298.333z"/>
<path style="fill:#1866cb; stroke:none;" d="M282 298L283 299L282 298M122 299L123 300L122 299M160 299L161 300L160 299M243 299L244 300L243 299z"/>
<path style="fill:#3592b5; stroke:none;" d="M237 302L237 303L247 300L237 302z"/>
<path style="fill:#1866cb; stroke:none;" d="M281 299L282 300L281 299z"/>
<path style="fill:#3592b5; stroke:none;" d="M161 300L162 301L161 300z"/>
<path style="fill:#1866cb; stroke:none;" d="M162.667 300.333L163.333 300.667L162.667 300.333M241 300L242 301L241 300M280 300L281 301L280 300M125 301L126 302L125 301z"/>
<path style="fill:#3592b5; stroke:none;" d="M163.667 301.333L164.333 301.667L163.667 301.333z"/>
<path style="fill:#1866cb; stroke:none;" d="M165 301L166 302L165 301M238 301L239 302L238 301M278 301L279 302L278 301M126 302L127 303L126 302z"/>
<path style="fill:#3592b5; stroke:none;" d="M166.667 302.333L167.333 302.667L166.667 302.333z"/>
<path style="fill:#1866cb; stroke:none;" d="M168.667 302.333L169.333 302.667L168.667 302.333M235.667 302.333L236.333 302.667L235.667 302.333M277 302L278 303L277 302z"/>
<path style="fill:#3592b5; stroke:none;" d="M169 303L169 304L174 305L174 304L169 303z"/>
<path style="fill:#1866cb; stroke:none;" d="M171 303L172 304L171 303M232.667 303.333L233.333 303.667L232.667 303.333z"/>
<path style="fill:#3592b5; stroke:none;" d="M234.667 303.333L235.333 303.667L234.667 303.333z"/>
<path style="fill:#1866cb; stroke:none;" d="M276 303L277 304L276 303M129 304L130 305L129 304M174.667 304.333L175.333 304.667L174.667 304.333M229 304L230 305L229 304z"/>
<path style="fill:#3592b5; stroke:none;" d="M222 306L222 307L234 305L222 306z"/>
<path style="fill:#1866cb; stroke:none;" d="M274 304L275 305L274 304M130 305L131 306L130 305z"/>
<path style="fill:#3592b5; stroke:none;" d="M175 305L175 306L178 306L175 305z"/>
<path style="fill:#1866cb; stroke:none;" d="M178 305L178 306L181 306L178 305M224.667 305.333L225.333 305.667L224.667 305.333M273 305L274 306L273 305M132 306L133 307L132 306z"/>
<path style="fill:#3592b5; stroke:none;" d="M180 306L180 307C193.616 309.537 207.272 309.493 221 308L221 307L180 306z"/>
<path style="fill:#1866cb; stroke:none;" d="M183 306L183 307L186 307L183 306M218 306L218 307L222 307L218 306z"/>
<path style="fill:#3592b5; stroke:none;" d="M270 306L262 311L262 312L271 307L270 306z"/>
<path style="fill:#1866cb; stroke:none;" d="M271.667 306.333L272.333 306.667L271.667 306.333M133.667 307.333L134.333 307.667L133.667 307.333M190 307L190 308L195 308L190 307M210 307L210 308L214 308L210 307M270 307L271 308L270 307M135 308L136 309L135 308M268 308L269 309L268 308M137 309L138 310L137 309M267 309L268 310L267 309M265 310L266 311L265 310M140 311L141 312L140 311M263 311L264 312L263 311M142 312L143 313L142 312z"/>
<path style="fill:#3592b5; stroke:none;" d="M258 314L261 313L258 314z"/>
<path style="fill:#1866cb; stroke:none;" d="M261 312L262 313L261 312M144 313L145 314L144 313M259 313L260 314L259 313M146 314L147 315L146 314z"/>
<path style="fill:#3592b5; stroke:none;" d="M249 317L249 318L257 315L249 317z"/>
<path style="fill:#1866cb; stroke:none;" d="M257 314L258 315L257 314M148 315L149 316L148 315M255 315L256 316L255 315M150 316L151 317L150 316M253.667 316.333L254.333 316.667L253.667 316.333M152.667 317.333L153.333 317.667L152.667 317.333M251 317L252 318L251 317M155 318L156 319L155 318z"/>
<path style="fill:#3592b5; stroke:none;" d="M233 322L233 323L248 319L233 322z"/>
<path style="fill:#1866cb; stroke:none;" d="M248.667 318.333L249.333 318.667L248.667 318.333M158 319L159 320L158 319z"/>
<path style="fill:#3592b5; stroke:none;" d="M159.667 319.333L160.333 319.667L159.667 319.333z"/>
<path style="fill:#1866cb; stroke:none;" d="M246 319L247 320L246 319M161 320L162 321L161 320z"/>
<path style="fill:#3592b5; stroke:none;" d="M162 320L162 321L175 324L175 323L162 320z"/>
<path style="fill:#1866cb; stroke:none;" d="M243 320L244 321L243 320M163.667 321.333L164.333 321.667L163.667 321.333M240 321L241 322L240 321M166.667 322.333L167.333 322.667L166.667 322.333M236.667 322.333L237.333 322.667L236.667 322.333M170.667 323.333L171.333 323.667L170.667 323.333z"/>
<path style="fill:#3592b5; stroke:none;" d="M176 323C181.304 329.164 198.487 327 206 327C209.516 327 213.565 327.786 216 325C203.143 327.387 188.664 326.05 176 323M217 325L217 326L228 325L217 325M230.667 323.333L231.333 323.667L230.667 323.333z"/>
<path style="fill:#1866cb; stroke:none;" d="M232.667 323.333L233.333 323.667L232.667 323.333M174.667 324.333L175.333 324.667L174.667 324.333M228 324L228 325L231 325L228 324M179 325L179 326L182 326L179 325M223 325L223 326L226 326L223 325M186 326L186 327L189 327L186 326M216 326L216 327L219 327L216 326M193 327L193 328L210 328L193 327z"/>
</svg>