<?xml version="1.0" standalone="no"?>
<!DOCTYPE svg PUBLIC "-//W3C//DTD SVG 20010904//EN"
 "http://www.w3.org/TR/2001/REC-SVG-20010904/DTD/svg10.dtd">
<svg version="1.0" xmlns="http://www.w3.org/2000/svg"
 width="400.000000pt" height="400.000000pt" viewBox="0 0 400.000000 400.000000"
 preserveAspectRatio="xMidYMid meet">

<g transform="translate(0.000000,400.000000) scale(0.100000,-0.100000)"
fill="#000000" stroke="none">
<path d="M0 2000 l0 -2000 2000 0 2000 0 0 2000 0 2000 -2000 0 -2000 0 0
-2000z m2121 1260 c366 -37 648 -188 889 -476 195 -233 299 -576 270 -890 -6
-65 -15 -137 -21 -159 -6 -22 -15 -57 -20 -79 -12 -46 -12 -47 -91 69 l-55 80
4 140 c7 204 -19 337 -102 520 -61 135 -198 302 -325 397 -277 208 -647 271
-972 164 -124 -40 -187 -71 -285 -137 l-72 -49 -126 0 c-69 0 -125 4 -125 9 0
17 144 142 225 195 195 129 382 195 612 215 48 5 89 9 89 10 1 0 48 -4 105 -9z
m-51 -874 c198 -39 344 -96 490 -191 68 -45 308 -270 298 -280 -2 -3 -33 11
-69 30 -83 45 -249 99 -367 120 -158 27 -374 34 -1024 35 l-628 0 -39 35 c-54
49 -115 130 -151 201 -16 32 -30 63 -30 67 0 5 323 6 718 4 620 -3 729 -6 802
-21z m329 -444 c317 -61 535 -188 747 -437 67 -78 352 -485 340 -485 -3 0 -75
45 -162 100 -284 182 -393 236 -579 286 -215 57 -199 56 -950 63 -672 7 -703
8 -777 29 -234 64 -427 221 -513 417 l-25 56 902 -4 c877 -4 906 -4 1017 -25z
m-1421 -596 c23 -8 78 -20 124 -27 81 -11 84 -12 133 -63 141 -145 305 -243
502 -302 109 -32 322 -44 454 -25 178 27 415 137 540 253 8 7 26 23 40 36 l26
22 78 -25 c123 -40 121 -34 30 -121 -437 -417 -1067 -481 -1570 -160 -78 50
-201 155 -251 213 -71 83 -163 213 -151 213 3 0 23 -6 45 -14z"/>
</g>
</svg>